PathFileType	4	(X/Y/Z)	Patient4_TMGait_0pt6_01_left_25.trc.trc
DataRate	CameraRate	NumFrames	NumMarkers	Units	OrigDataRate	OrigDataStartFrame	OrigNumFrames
82.352941176471	82.352941176471	4	33	mm	82.352941176471	106	       141
Frame#	Time	Sacral			L.Shoulder			Chest			R.Shoulder			Neck			R.ASIS			L.ASIS			R.Thigh.Superior			R.Thigh.Lateral			R.Thigh.Inferior			R.Patella			L.Thigh.Superior			L.Thigh.Lateral			L.Thigh.Inferior			L.Patella			L.Shank.Superior			L.Shank.Lateral			L.Shank.Inferior			R.Shank.Superior			R.Shank.Lateral			R.Shank.Inferior			R.Heel			R.Midfoot.Superior			R.Midfoot.Lateral			R.Toe			L.Heel			L.Midfoot.Lateral			L.Midfoot.Superior			L.Toe			L.Elbow			L.Wrist			R.Elbow			R.Wrist			
		X1	Y1	Z1	X2	Y2	Z2	X3	Y3	Z3	X4	Y4	Z4	X5	Y5	Z5	X6	Y6	Z6	X7	Y7	Z7	X8	Y8	Z8	X9	Y9	Z9	X10	Y10	Z10	X11	Y11	Z11	X12	Y12	Z12	X13	Y13	Z13	X14	Y14	Z14	X15	Y15	Z15	X16	Y16	Z16	X17	Y17	Z17	X18	Y18	Z18	X19	Y19	Z19	X20	Y20	Z20	X21	Y21	Z21	X22	Y22	Z22	X23	Y23	Z23	X24	Y24	Z24	X25	Y25	Z25	X26	Y26	Z26	X27	Y27	Z27	X28	Y28	Z28	X29	Y29	Z29	X30	Y30	Z30	X31	Y31	Z31	X32	Y32	Z32	X33	Y33	Z33	

106	31.695000000000	730.781088537416	1010.076345417416	533.765442816890	869.494600496837	1438.932400839324	337.211505694593	995.006725103918	1373.196588207267	483.045332015903	934.012276733082	1444.168441551756	666.264198611710	873.624257807557	1499.433782863849	491.493024377728	965.536706987568	947.946019684624	630.914340648825	929.192451176730	967.322416821448	358.565127272571	982.302167757640	738.529236750217	599.736439756893	890.221490615091	636.394268469261	661.487738948763	956.198987553239	578.901134670327	578.963847576660	946.963121496406	494.353267063144	582.888322933298	1019.815682978118	792.130213742319	384.320422101621	977.398411925950	662.510623538296	307.559213495655	1086.665842443551	606.255070585545	360.506530957192	1108.845197498501	525.234487852091	352.962048523832	1066.000824831626	448.970708993066	348.624995664620	948.681586947197	357.556230350299	306.736943925133	989.960390692489	233.039478503634	360.185856923555	919.611032971934	406.763020375867	587.021547076421	849.035262354814	300.635690301486	644.429825023697	893.465500274551	208.674077176572	577.581472342439	760.851199661460	42.512273422382	539.353838656363	932.960314240135	97.414698156065	575.236084721038	844.556402914360	36.433904045732	613.481553340861	1052.590132971925	44.525856354971	601.182398476422	842.677749728649	99.024001929905	407.955098399749	907.229407120682	80.980745917979	322.653966947981	1001.676210354447	129.254761815698	338.339718808162	1114.490201073820	56.958936429224	301.964995629437	794.281450156166	1085.478085936101	243.334240971343	806.354053720649	826.097684324844	247.214902395889	1029.685476287721	1110.904434938659	785.926476298880	1277.638787217853	1051.946692568064	750.316151974097	
107	31.707142857143	730.045144875498	1010.150242500468	533.900802676985	869.246143521548	1438.656858536550	337.200157146863	995.037503417087	1372.554649911475	482.652322030511	934.758958321233	1443.708739465897	666.026608754740	873.809256415114	1499.047456608741	491.420200292381	964.762681715242	947.278371226943	630.591352339386	928.171962464000	966.891290678123	358.185992749389	979.474404023555	737.550191471120	599.385557357387	886.446598586410	636.204019117146	661.579978007115	951.436877910151	578.155374268454	578.940406449760	941.413407964156	493.856762739175	582.937349703256	1017.851041530219	791.075897684311	384.386007253917	975.258281404080	661.536107831470	307.658079764049	1083.612803927368	604.952523190795	361.901324730902	1106.881794221414	526.325715817892	354.536245057306	1068.433129903167	450.139724308696	349.075048096327	958.515077916491	351.264244609143	305.273367958167	1007.964972194979	229.417150066692	358.540197429054	913.655860274628	406.441549146451	587.064388452727	842.736000368187	300.539853104908	644.556370965018	886.657379154847	208.441685828488	577.572422053908	753.506681353355	42.491303208235	539.348930836224	925.616071651284	97.351764785772	575.261106192353	837.203952797254	36.419578172683	613.522751804890	1045.226588458620	44.466681026249	601.256323923505	870.292541476761	85.278020644497	404.407385734641	936.567241144650	72.240951482918	319.513522503863	1027.428599796998	126.526315640163	336.179550512302	1145.032014221330	62.118911515774	300.341599466537	786.531028903804	1086.976151391938	244.758482801448	790.597742896225	827.502831192571	250.963172727759	1037.322907623395	1112.932778882125	784.760588324149	1287.366101277842	1065.654393873345	747.583068862219	
108	31.719285714286	729.358241961299	1010.112165899772	533.902462489726	869.127426710264	1438.306583690564	337.055468899926	995.129941719091	1371.781417542651	482.154928812115	935.506512025824	1443.084448221812	665.671181016752	874.055846040443	1498.550623811981	491.243960361304	964.042109718753	946.515854727942	630.129878067716	927.163906166356	966.264674274133	357.661833162522	976.806267805574	736.502760052805	599.040031902692	882.825436815145	635.941568229152	661.591258004150	946.848286947981	577.360727278197	578.829449615965	936.052621832363	493.303392437854	582.855769132992	1015.521942247756	789.428748036018	384.383942142826	972.581279634284	660.188925784431	307.564178577030	1079.819328562445	603.022692523328	363.377408401599	1104.135546176801	526.957543189321	356.214839472658	1070.092216998095	451.235849727670	349.600083649415	968.221203115991	345.364088022962	303.744491989964	1025.543180101175	226.834003547447	357.129254355090	907.869966811612	406.069586740597	587.020720463793	836.588982902582	300.410170731230	644.650298906762	879.906913360406	208.160739296667	577.498756481664	746.157061126338	42.463447407277	539.343127033748	918.253311484727	97.280182543272	575.272529262966	829.847143310265	36.407949040130	613.565314259485	1037.859616104956	44.406141855756	601.330094059870	898.002934873390	73.410344999895	400.981916100553	965.974736014688	65.153343872441	316.762683976625	1052.889186597443	125.132789343416	334.495131157169	1174.797782932079	68.637442308780	299.798667901251	779.004491339895	1088.564614973492	246.147898296578	775.705535681809	829.229396126562	254.544336271139	1044.548997939127	1114.878148524889	783.524863996153	1296.062011450466	1078.901933377514	744.850927192615	
109	31.731428571429	728.742223277848	1009.978203134257	533.786750307250	869.116350241114	1437.899315169636	336.774455063067	995.274419914068	1370.912108739228	481.546226099233	936.251782733461	1442.337386352471	665.189051684081	874.353556016291	1497.968211549131	490.958669247982	963.395060176439	945.684904994281	629.533867440076	926.167296474103	965.489962090704	357.006232577900	974.293739588014	735.399556809736	598.668540125626	879.368567998680	635.618830511758	661.505622800159	942.433912997386	576.526880134148	578.608191625668	930.883776533030	492.696427404440	582.627806863555	1012.873178775534	787.309759345732	384.314021724644	969.476415108157	658.587009724790	307.233471423180	1075.457473923303	600.647378275805	364.825798460925	1100.777902939574	527.249414051975	357.901111022670	1071.064619796978	452.317605538754	350.139696138242	977.654111344466	340.029402534404	302.226411445532	1042.429266924873	225.373636731712	355.989861728982	902.252693470553	405.651116392804	586.879651633926	830.594070896643	300.257549248162	644.706661544155	873.212793914439	207.838291742276	577.360523926272	738.800116896320	42.430810925727	539.341620853842	910.870932588248	97.201639333000	575.272044153275	822.483767513967	36.399053254005	613.610949826006	1030.489959892655	44.348579433157	601.402585221676	925.282431284161	63.668089585001	397.869940095299	994.916827806317	59.807899758648	314.556720092306	1077.657535349771	125.076141774779	333.336628569987	1203.348881134373	76.310728527054	300.349627856573	771.769848696812	1090.219274606730	247.504332677123	761.701067917563	831.195218583106	257.892125998130	1051.343740271900	1116.739874106392	782.223628547259	1303.753522924151	1091.587548874713	742.132526981646	
